<svg id="628302" viewBox="0 0 2634 2771" xmlns="http://www.w3.org/2000/svg">
  <g transform="matrix(1,0,0,1,0,0)">
    <g id="628302" opacity="1" style="mix-blend-mode:normal">
      <g>
        <g>
          <g transform="matrix(1,0,0,1,630,702)">
            <g id="628303" opacity="1" style="mix-blend-mode:normal">
              <g>
                <g>
                  <g transform="matrix(1,0,0,1,606.2466,767.0893)">
                    <g id="628304" opacity="1" style="mix-blend-mode:normal">
                      <g>
                        <g>
                          <path id="628304_fill_path"
                                d="M23,0h115.0342c12.70255,0 23,10.29745 23,23v768.4405c0,12.70255 -10.29745,23 -23,23h-115.0342c-12.70255,0 -23,-10.29745 -23,-23v-768.4405c0,-12.70255 10.29745,-23 23,-23z"
                                fill-rule="nonzero" fill="rgb(28, 125, 67)" fill-opacity="1"
                                style="mix-blend-mode:NORMAL"></path>
                        </g>
                      </g>
                    </g>
                  </g>
                  <g transform="matrix(1,0,0,1,606.2466,1240.6012)">
                    <g id="628305" opacity="1" style="mix-blend-mode:normal">
                      <g>
                        <g>
                          <path id="628305_fill_path" d="M0,0h161.03v0v151.52v0h-161.03v0v-151.52z" fill-rule="nonzero"
                                fill="rgb(0, 0, 0)" fill-opacity="0.41" style="mix-blend-mode:NORMAL"></path>
                        </g>
                      </g>
                    </g>
                  </g>
                  <g transform="matrix(1,0,0,1,-9.4726,-9.4702)">
                    <g id="628322" opacity="1" style="mix-blend-mode:normal">
                      <g>
                        <g>
                          <path id="628322_fill_path"
                                d="M 100.82799999999999 331.60889999999995 C 100.11229999999999 332.01069999999993, 99.4618 332.44379999999995, 98.81479999999999 332.94829999999996 C 98.16779999999999 333.45279999999997, 97.58979999999998 333.97909999999996, 97.02599999999998 334.5764 C 96.46219999999998 335.1737, 95.97049999999999 335.7818, 95.50359999999999 336.4568 C 95.0367 337.1318, 94.64129999999999 337.80699999999996, 94.28129999999999 338.5449 C 93.92129999999999 339.2828, 93.63159999999998 340.0087, 93.38689999999998 340.792 C 93.14219999999999 341.57529999999997, 92.96809999999998 342.3372, 92.84369999999998 343.1484 C 92.71929999999999 343.95959999999997, 92.66069999999999 344.74109999999996, 92.66059999999999 345.56129999999996 C 92.66049999999998 346.38149999999996, 92.661 998.3931000000001, 92.661 999.2139000000001 C 92.661 1000.0347, 92.7202 1000.8139000000001, 92.8434 1001.6251000000001 C 92.9666 1002.4363000000001, 93.1426 1003.1979000000001, 93.3874 1003.9819000000001 C 93.6322 1004.7659000000001, 93.9218 1005.4923, 94.2818 1006.2299 C 94.6418 1006.9675000000001, 95.03699999999999 1007.6427000000001, 95.5042 1008.3179000000001 C 95.9714 1008.9931000000001, 96.46260000000001 1009.6011000000001, 97.0258 1010.1979000000001 C 97.589 1010.7947000000001, 98.1682 1011.3195000000002, 98.8146 1011.8251000000001 C 99.461 1012.3307000000001, 100.11380000000001 1012.7643, 100.82900000000001 1013.1659000000001 C 101.5442 1013.5675000000001, 682.9746 1339.988, 683.6666 1340.3765 C 684.3586 1340.765, 685.0404 1341.0836, 685.7818 1341.3677 C 686.5232 1341.6518, 687.2448999999999 1341.8698000000002, 688.0196 1342.0423 C 688.7943 1342.2148, 689.5398 1342.3251, 690.3315 1342.3824 C 691.1232 1342.4397, 691.8753 1342.4399, 692.6675 1342.3819 C 693.4597 1342.3239, 694.2057 1342.2143, 694.9798 1342.0415 C 695.7538999999999 1341.8687, 696.4756 1341.6519, 697.2162999999999 1341.3686 C 697.9569999999999 1341.0853, 698.64 1340.7642999999998, 699.3312999999999 1340.3762 C 700.0225999999999 1339.9881, 1281.4562999999998 1013.5668, 1282.1719999999998 1013.165 C 1282.8876999999998 1012.7632, 1283.5382 1012.3301, 1284.1852 1011.8256 C 1284.8321999999998 1011.3211, 1285.4102 1010.7948, 1285.974 1010.1975 C 1286.5377999999998 1009.6002, 1287.0294999999999 1008.9920999999999, 1287.4963999999998 1008.3171 C 1287.9632999999997 1007.6421, 1288.3587 1006.9669, 1288.7187 1006.229 C 1289.0786999999998 1005.4911000000001, 1289.3683999999998 1004.7652, 1289.6130999999998 1003.9819 C 1289.8577999999998 1003.1985999999999, 1290.0319 1002.4367, 1290.1562999999999 1001.6255 C 1290.2806999999998 1000.8143, 1290.3392999999999 1000.0328, 1290.3393999999998 999.2126 C 1290.3394999999998 998.3924, 1290.339 346.38079999999997, 1290.339 345.55999999999995 C 1290.339 344.7391999999999, 1290.2798 343.9599999999999, 1290.1566 343.14879999999994 C 1290.0334 342.33759999999995, 1289.8573999999999 341.57599999999996, 1289.6126 340.792 C 1289.3678 340.008, 1289.0782 339.2815999999999, 1288.7182 338.5439999999999 C 1288.3582000000001 337.80639999999994, 1287.963 337.1312, 1287.4958 336.45599999999996 C 1287.0285999999999 335.78079999999994, 1286.5374 335.17279999999994, 1285.9741999999999 334.57599999999996 C 1285.4109999999998 333.9792, 1284.8318 333.45439999999996, 1284.1853999999998 332.94879999999995 C 1283.5389999999998 332.44319999999993, 1282.8862000000001 332.0095999999999, 1282.171 331.60799999999995 C 1281.4558 331.2064, 700.0254 4.785799999999999, 699.3334 4.3972999999999995 C 698.6414 4.0088, 697.9596 3.6902000000000004, 697.2182 3.4061000000000003 C 696.4768 3.1220000000000003, 695.7551000000001 2.9040000000000004, 694.9804 2.7315000000000005 C 694.2057 2.5590000000000006, 693.4603000000001 2.448700000000001, 692.6686000000001 2.391400000000001 C 691.8769000000001 2.3341000000000007, 691.1247 2.3339, 690.3325 2.3918999999999997 C 689.5403 2.4498999999999995, 688.7943 2.5595000000000003, 688.0202 2.7323000000000004 C 687.2461000000001 2.9051000000000005, 686.5244 3.1219000000000006, 685.7837000000001 3.4052000000000007 C 685.0430000000001 3.688500000000001, 684.36 4.009500000000001, 683.6687000000001 4.397600000000001 C 682.9774000000001 4.7857, 101.54369999999999 331.20709999999997, 100.82799999999999 331.60889999999995 Z"
                                fill-rule="nonzero" fill="rgb(30, 149, 77)" fill-opacity="1"
                                style="mix-blend-mode:NORMAL"></path>
                        </g>
                      </g>
                    </g>
                  </g>
                </g>
              </g>
            </g>
          </g>
          <g transform="matrix(1,0,0,1,33,86)">
            <g id="628323" opacity="1" style="mix-blend-mode:normal">
              <g>
                <g>
                  <defs>
                    <filter id="628325_dropShadow_0" x="-100%" y="-100%" width="300%" height="300%"
                            filterUnits="objectBoundingBox">
                      <feOffset id="628325_dropShadow_0_offset" dx="0" dy="0" in="SourceGraphic"
                                result="628325_dropShadow_0_offset"></feOffset>
                      <feGaussianBlur id="628325_dropShadow_0_radius" stdDeviation="125" in="628325_dropShadow_0_offset"
                                      result="628325_dropShadow_0_blur"></feGaussianBlur>
                      <feFlood flood-color="rgb(79 222 136)" flood-opacity="1" in="628325_dropShadow_0_blur"
                               result="628325_dropShadow_0_color"></feFlood>
                      <feComposite operator="in" in="628325_dropShadow_0_color" in2="628325_dropShadow_0_blur"
                                   result="628325_dropShadow_0_shadow_result"></feComposite>
                      <feMerge>
                        <feMergeNode in="628325_dropShadow_0_shadow_result"></feMergeNode>
                        <feMergeNode in="SourceGraphic"></feMergeNode>
                      </feMerge>
                    </filter>
                  </defs>
                  <g filter="url(#628325_dropShadow_0)">
                    <g transform="matrix(1,0,0,1,100.2734,100.2734)">
                      <g id="628325" opacity="1" style="mix-blend-mode:normal">
                        <g>
                          <g>
                            <defs>
                              <clipPath id="628325_stroke_clip_path" clipPathUnits="userSpaceOnUse">
                                <path
                                  d="M 181.2227 581.4179 C 179.2908 582.5333, 177.5333 583.7309, 175.79149999999998 585.1227 C 174.04969999999997 586.5145, 172.4827 587.9629, 170.9662 589.5955 C 169.44969999999998 591.2281, 168.12449999999998 592.8924999999999, 166.8671 594.7361999999999 C 165.6097 596.5799, 164.5493 598.4218, 163.5819 600.4334 C 162.6145 602.445, 161.8342 604.4197999999999, 161.1757 606.5527999999999 C 160.5172 608.6858, 160.0484 610.7601, 159.7155 612.9643 C 159.3826 615.1685, 159.2262 617.2911, 159.2242 619.5227 C 159.2222 621.7543, 159.2242 1754.7266, 159.2242 1756.9574 C 159.2242 1759.1882, 159.3826 1761.309, 159.71699999999998 1763.5134 C 160.05139999999997 1765.7178000000001, 160.5222 1767.799, 161.1778 1769.9286 C 161.83339999999998 1772.0582, 162.6122 1774.0382, 163.5802 1776.049 C 164.54819999999998 1778.0598, 165.613 1779.8990000000001, 166.8714 1781.7426 C 168.1298 1783.5862, 169.4498 1785.2494, 170.9678 1786.8862 C 172.4858 1788.523, 174.0478 1789.9662, 175.7902 1791.3566 C 177.5326 1792.747, 179.2926 1793.9438, 181.2242 1795.0614 C 183.1558 1796.179, 1164.3078999999998 2362.6639, 1166.2397999999998 2363.7793 C 1168.1716999999999 2364.8947000000003, 1170.0875 2365.8179999999998, 1172.1638 2366.6306 C 1174.2401 2367.4432, 1176.2777999999998 2368.0761, 1178.4498999999998 2368.5732000000003 C 1180.6219999999998 2369.0703000000003, 1182.7261999999998 2369.3858999999998, 1184.9515999999999 2369.553 C 1187.177 2369.7201, 1189.3022 2369.7176000000004, 1191.528 2369.5496000000003 C 1193.7538 2369.3816, 1195.8564 2369.0663, 1198.0329 2368.5701 C 1200.2094 2368.0739, 1202.2381 2367.4465, 1204.3134 2366.6328 C 1206.3887 2365.8190999999997, 1208.3088999999998 2364.8955, 1210.2387999999999 2363.7793 C 1212.1687 2362.6631, 2193.3260000000005 1796.1780999999999, 2195.2579000000005 1795.0627 C 2197.1898000000006 1793.9473, 2198.9473000000007 1792.7497, 2200.6891000000005 1791.3579 C 2202.4309000000003 1789.9660999999999, 2203.9979000000003 1788.5176999999999, 2205.5144000000005 1786.8851 C 2207.0309000000007 1785.2525, 2208.3561000000004 1783.5879999999997, 2209.6135000000004 1781.7442999999998 C 2210.8709000000003 1779.9006, 2211.9313000000006 1778.0588, 2212.8987000000006 1776.0472 C 2213.8661000000006 1774.0356, 2214.6464000000005 1772.0608, 2215.3049000000005 1769.9278 C 2215.9634000000005 1767.7948, 2216.4322000000006 1765.7204999999997, 2216.7651000000005 1763.5162999999998 C 2217.0980000000004 1761.3120999999999, 2217.2544000000003 1759.1895, 2217.2564 1756.9578999999999 C 2217.2584 1754.7262999999998, 2217.2564 621.754, 2217.2564 619.5232 C 2217.2564 617.2923999999999, 2217.0980000000004 615.1715999999999, 2216.7636 612.9671999999999 C 2216.4292 610.7628, 2215.9584000000004 608.6816, 2215.3028000000004 606.552 C 2214.6472000000003 604.4224, 2213.8684 602.4424, 2212.9004 600.4316 C 2211.9324 598.4208, 2210.8676000000005 596.5816, 2209.6092000000003 594.7379999999999 C 2208.3508 592.8943999999999, 2207.0308000000005 591.2312, 2205.5128000000004 589.5944 C 2203.9948000000004 587.9576, 2202.4328000000005 586.5144, 2200.6904000000004 585.124 C 2198.9480000000003 583.7336, 2197.188 582.5368, 2195.2564 581.4191999999999 C 2193.3248000000003 580.3015999999999, 1212.1726500000002 13.816750000000104, 1210.2407500000002 12.701350000000105 C 1208.3088500000001 11.585950000000105, 1206.39305 10.662650000000102, 1204.31675 9.850050000000103 C 1202.24045 9.037450000000103, 1200.2027500000002 8.404550000000103, 1198.0306500000002 7.907450000000104 C 1195.8585500000002 7.410350000000104, 1193.7543500000002 7.094750000000099, 1191.5289500000001 6.927650000000099 C 1189.30355 6.7605500000001, 1187.17835 6.763050000000098, 1184.95255 6.9310500000000985 C 1182.72675 7.099050000000099, 1180.62415 7.4143500000001, 1178.44765 7.9105500000001 C 1176.27115 8.4067500000001, 1174.24245 9.0341500000001, 1172.16715 9.8478500000001 C 1170.09185 10.661550000000101, 1168.1716500000002 11.585150000000105, 1166.2417500000001 12.701350000000105 C 1164.31185 13.817550000000104, 183.15460000000002 580.3025, 181.2227 581.4179 Z"></path>
                              </clipPath>
                            </defs>
                            <g style="mix-blend-mode:NORMAL">
                              <path id="628325_stroke_path"
                                    d="M 181.2227 581.4179 C 179.2908 582.5333, 177.5333 583.7309, 175.79149999999998 585.1227 C 174.04969999999997 586.5145, 172.4827 587.9629, 170.9662 589.5955 C 169.44969999999998 591.2281, 168.12449999999998 592.8924999999999, 166.8671 594.7361999999999 C 165.6097 596.5799, 164.5493 598.4218, 163.5819 600.4334 C 162.6145 602.445, 161.8342 604.4197999999999, 161.1757 606.5527999999999 C 160.5172 608.6858, 160.0484 610.7601, 159.7155 612.9643 C 159.3826 615.1685, 159.2262 617.2911, 159.2242 619.5227 C 159.2222 621.7543, 159.2242 1754.7266, 159.2242 1756.9574 C 159.2242 1759.1882, 159.3826 1761.309, 159.71699999999998 1763.5134 C 160.05139999999997 1765.7178000000001, 160.5222 1767.799, 161.1778 1769.9286 C 161.83339999999998 1772.0582, 162.6122 1774.0382, 163.5802 1776.049 C 164.54819999999998 1778.0598, 165.613 1779.8990000000001, 166.8714 1781.7426 C 168.1298 1783.5862, 169.4498 1785.2494, 170.9678 1786.8862 C 172.4858 1788.523, 174.0478 1789.9662, 175.7902 1791.3566 C 177.5326 1792.747, 179.2926 1793.9438, 181.2242 1795.0614 C 183.1558 1796.179, 1164.3078999999998 2362.6639, 1166.2397999999998 2363.7793 C 1168.1716999999999 2364.8947000000003, 1170.0875 2365.8179999999998, 1172.1638 2366.6306 C 1174.2401 2367.4432, 1176.2777999999998 2368.0761, 1178.4498999999998 2368.5732000000003 C 1180.6219999999998 2369.0703000000003, 1182.7261999999998 2369.3858999999998, 1184.9515999999999 2369.553 C 1187.177 2369.7201, 1189.3022 2369.7176000000004, 1191.528 2369.5496000000003 C 1193.7538 2369.3816, 1195.8564 2369.0663, 1198.0329 2368.5701 C 1200.2094 2368.0739, 1202.2381 2367.4465, 1204.3134 2366.6328 C 1206.3887 2365.8190999999997, 1208.3088999999998 2364.8955, 1210.2387999999999 2363.7793 C 1212.1687 2362.6631, 2193.3260000000005 1796.1780999999999, 2195.2579000000005 1795.0627 C 2197.1898000000006 1793.9473, 2198.9473000000007 1792.7497, 2200.6891000000005 1791.3579 C 2202.4309000000003 1789.9660999999999, 2203.9979000000003 1788.5176999999999, 2205.5144000000005 1786.8851 C 2207.0309000000007 1785.2525, 2208.3561000000004 1783.5879999999997, 2209.6135000000004 1781.7442999999998 C 2210.8709000000003 1779.9006, 2211.9313000000006 1778.0588, 2212.8987000000006 1776.0472 C 2213.8661000000006 1774.0356, 2214.6464000000005 1772.0608, 2215.3049000000005 1769.9278 C 2215.9634000000005 1767.7948, 2216.4322000000006 1765.7204999999997, 2216.7651000000005 1763.5162999999998 C 2217.0980000000004 1761.3120999999999, 2217.2544000000003 1759.1895, 2217.2564 1756.9578999999999 C 2217.2584 1754.7262999999998, 2217.2564 621.754, 2217.2564 619.5232 C 2217.2564 617.2923999999999, 2217.0980000000004 615.1715999999999, 2216.7636 612.9671999999999 C 2216.4292 610.7628, 2215.9584000000004 608.6816, 2215.3028000000004 606.552 C 2214.6472000000003 604.4224, 2213.8684 602.4424, 2212.9004 600.4316 C 2211.9324 598.4208, 2210.8676000000005 596.5816, 2209.6092000000003 594.7379999999999 C 2208.3508 592.8943999999999, 2207.0308000000005 591.2312, 2205.5128000000004 589.5944 C 2203.9948000000004 587.9576, 2202.4328000000005 586.5144, 2200.6904000000004 585.124 C 2198.9480000000003 583.7336, 2197.188 582.5368, 2195.2564 581.4191999999999 C 2193.3248000000003 580.3015999999999, 1212.1726500000002 13.816750000000104, 1210.2407500000002 12.701350000000105 C 1208.3088500000001 11.585950000000105, 1206.39305 10.662650000000102, 1204.31675 9.850050000000103 C 1202.24045 9.037450000000103, 1200.2027500000002 8.404550000000103, 1198.0306500000002 7.907450000000104 C 1195.8585500000002 7.410350000000104, 1193.7543500000002 7.094750000000099, 1191.5289500000001 6.927650000000099 C 1189.30355 6.7605500000001, 1187.17835 6.763050000000098, 1184.95255 6.9310500000000985 C 1182.72675 7.099050000000099, 1180.62415 7.4143500000001, 1178.44765 7.9105500000001 C 1176.27115 8.4067500000001, 1174.24245 9.0341500000001, 1172.16715 9.8478500000001 C 1170.09185 10.661550000000101, 1168.1716500000002 11.585150000000105, 1166.2417500000001 12.701350000000105 C 1164.31185 13.817550000000104, 183.15460000000002 580.3025, 181.2227 581.4179 Z"
                                    fill="none" stroke="rgb(34, 170, 88)" stroke-width="154" stroke-linecap="butt"
                                    stroke-linejoin="miter" stroke-dasharray="0 0" stroke-opacity="1"
                                    clip-path="url(#628325_stroke_clip_path)"></path>
                            </g>
                          </g>
                        </g>
                      </g>
                    </g>
                  </g>
                </g>
              </g>
            </g>
          </g>
        </g>
      </g>
    </g>
  </g>
  <animate href="#628305_fill_path" attributeName="d"
           values="M0,0h161.03v151.52h-161.03v-151.52z;M0,0h161.03v151.52h-161.03v-151.52z;M0,0h161.03v151.6691h-161.03v-151.6691z;M0,0h161.03v152.1347h-161.03v-152.1347z;M0,0h161.0301v152.9466h-161.0301v-152.9466z;M0,0h161.0301v154.1375h-161.0301v-154.1375z;M0,0h161.0302v155.7432h-161.0302v-155.7432z;M0,0h161.0303v157.8019h-161.0303v-157.8019z;M0,0h161.0304v160.3533h-161.0304v-160.3533z;M0,0h161.0305v163.4363h-161.0305v-163.4363z;M0,0h161.0306v167.0854h-161.0306v-167.0854z;M0,0h161.0308v171.325h-161.0308v-171.325z;M0,0h161.031v176.1612h-161.031v-176.1612z;M0,0h161.0312v181.5706h-161.0312v-181.5706z;M0,0h161.0315v187.49h-161.0315v-187.49z;M0,0h161.0318v193.808h-161.0318v-193.808z;M0,0h161.032v200.3666h-161.032v-200.3666z;M0,0h161.0323v206.9751h-161.0323v-206.9751z;M0,0h161.0326v213.4357h-161.0326v-213.4357z;M0,0h161.0328v219.5714h-161.0328v-219.5714z;M0,0h161.0331v225.2467h-161.0331v-225.2467z;M0,0h161.0333v230.3746h-161.0333v-230.3746z;M0,0h161.0335v234.9133h-161.0335v-234.9133z;M0,0h161.0336v238.8556h-161.0336v-238.8556z;M0,0h161.0338v242.2178h-161.0338v-242.2178z;M0,0h161.0339v245.0302h-161.0339v-245.0302z;M0,0h161.034v247.3303h-161.034v-247.3303z;M0,0h161.0341v249.1576h-161.0341v-249.1576z;M0,0h161.0341v250.5513h-161.0341v-250.5513z;M0,0h161.0342v251.5484h-161.0342v-251.5484z;M0,0h161.0342v252.1832h-161.0342v-252.1832z;M0,0h161.0342v252.4871h-161.0342v-252.4871z;M0,0h161.0342v252.507h-161.0342v-252.507z;M0,0h161.0342v252.3696h-161.0342v-252.3696z;M0,0h161.0342v252.0866h-161.0342v-252.0866z;M0,0h161.0342v251.649h-161.0342v-251.649z;M0,0h161.0341v251.0469h-161.0341v-251.0469z;M0,0h161.0341v250.27h-161.0341v-250.27z;M0,0h161.0341v249.3072h-161.0341v-249.3072z;M0,0h161.034v248.1469h-161.034v-248.1469z;M0,0h161.034v246.777h-161.034v-246.777z;M0,0h161.0339v245.1851h-161.0339v-245.1851z;M0,0h161.0338v243.3589h-161.0338v-243.3589z;M0,0h161.0337v241.2864h-161.0337v-241.2864z;M0,0h161.0336v238.9567h-161.0336v-238.9567z;M0,0h161.0335v236.3605h-161.0335v-236.3605z;M0,0h161.0334v233.4916h-161.0334v-233.4916z;M0,0h161.0333v230.3478h-161.0333v-230.3478z;M0,0h161.0331v226.9326h-161.0331v-226.9326z;M0,0h161.033v223.2569h-161.033v-223.2569z;M0,0h161.0328v219.3407h-161.0328v-219.3407z;M0,0h161.0326v215.2139h-161.0326v-215.2139z;M0,0h161.0325v210.9171h-161.0325v-210.9171z;M0,0h161.0323v206.5005h-161.0323v-206.5005z;M0,0h161.0321v202.0219h-161.0321v-202.0219z;M0,0h161.0319v197.5433h-161.0319v-197.5433z;M0,0h161.0317v193.1267h-161.0317v-193.1267z;M0,0h161.0316v188.8299h-161.0316v-188.8299z;M0,0h161.0314v184.7031h-161.0314v-184.7031z;M0,0h161.0312v180.7869h-161.0312v-180.7869z;M0,0h161.0311v177.1112h-161.0311v-177.1112z;M0,0h161.0309v173.696h-161.0309v-173.696z;M0,0h161.0308v170.5522h-161.0308v-170.5522z;M0,0h161.0307v167.6833h-161.0307v-167.6833z;M0,0h161.0306v165.0871h-161.0306v-165.0871z;M0,0h161.0305v162.7574h-161.0305v-162.7574z;M0,0h161.0304v160.6849h-161.0304v-160.6849z;M0,0h161.0303v158.8587h-161.0303v-158.8587z;M0,0h161.0302v157.2668h-161.0302v-157.2668z;M0,0h161.0302v155.8969h-161.0302v-155.8969z;M0,0h161.0301v154.7366h-161.0301v-154.7366z;M0,0h161.0301v153.7738h-161.0301v-153.7738z;M0,0h161.0301v152.9969h-161.0301v-152.9969z;M0,0h161.03v152.3948h-161.03v-152.3948z;M0,0h161.03v151.9572h-161.03v-151.9572z;M0,0h161.03v151.6742h-161.03v-151.6742z;M0,0h161.03v151.5368h-161.03v-151.5368z;M0,0h161.03v151.52h-161.03v-151.52z;M0,0h161.03v151.52h-161.03v-151.52z"
           dur="5s" repeatCount="indefinite"
           keyTimes="0;0.21;0.21;0.22;0.22;0.22;0.23;0.23;0.24;0.24;0.24;0.25;0.25;0.26;0.26;0.26;0.27;0.27;0.28;0.28;0.28;0.29;0.29;0.3;0.3;0.3;0.31;0.31;0.32;0.32;0.32;0.33;0.33;0.34;0.34;0.34;0.35;0.35;0.36;0.36;0.36;0.37;0.37;0.38;0.38;0.38;0.39;0.39;0.4;0.4;0.4;0.41;0.41;0.42;0.42;0.42;0.43;0.43;0.44;0.44;0.44;0.45;0.45;0.46;0.46;0.46;0.47;0.47;0.48;0.48;0.48;0.49;0.49;0.5;0.5;0.5;0.51;0.51;1"
           fill="freeze"></animate>
  <animateTransform href="#628322" attributeName="transform" type="translate"
                    values="691.5 672.3869;691.5 672.3869;691.5 672.3869;691.5 672.3869;691.5 672.3869" dur="5s"
                    repeatCount="indefinite" calcMode="spline" keyTimes="0;0.21;0.33;0.51;1"
                    keySplines="0.5 0 0.5 1;0.5 0 0.5 1;0.5 0 0.5 1;0.5 0 0.5 1" additive="sum"
                    fill="freeze"></animateTransform>
  <animateTransform href="#628322" attributeName="transform" type="scale" values="1 1;1 1;1.1 1.1;1 1;1 1" dur="5s"
                    repeatCount="indefinite" calcMode="spline" keyTimes="0;0.21;0.33;0.51;1"
                    keySplines="0.5 0 0.5 1;0.5 0 0.5 1;0.5 0 0.5 1;0.5 0 0.5 1" additive="sum"
                    fill="freeze"></animateTransform>
  <animateTransform href="#628322" attributeName="transform" type="translate"
                    values="-691.5 -672.3869;-691.5 -672.3869;-691.5 -672.3869;-691.5 -672.3869;-691.5 -672.3869"
                    dur="5s" repeatCount="indefinite" calcMode="spline" keyTimes="0;0.21;0.33;0.51;1"
                    keySplines="0.5 0 0.5 1;0.5 0 0.5 1;0.5 0 0.5 1;0.5 0 0.5 1" additive="sum"
                    fill="freeze"></animateTransform>
  <animate href="#628325_stroke_path" attributeName="stroke-dasharray"
           values="0 7171.976803586814;0 7171.976803586814;0 7171.976803586814;371.38058101741615 6800.5962225693975;1765.300429080873 5406.676374505941;4189.570608035861 2982.4061955509524;6185.652468915319 986.3243346714936;7015.755526677001 156.2212769098119;7100.967132264172 71.00967132264178;7100.967132264172 71.00967132264178;7015.755526677001 156.2212769098119;6185.652468915319 986.3243346714936;4189.570608035861 2982.4061955509515;1765.3004290808733 5406.67637450594;371.38058101741626 6800.5962225693975;0 7171.976803586814;0 7171.976803586814;0 7171.976803586814;0 7171.976803586814;0 7171.976803586814;0 7171.976803586814;0 7171.976803586814;0 7171.976803586814;0 7171.976803586814;0 7171.976803586814;0 7171.976803586814"
           dur="5s" repeatCount="indefinite"
           keyTimes="0;0.04;0.08;0.12;0.16;0.2;0.24;0.28;0.32;0.36;0.4;0.44;0.48;0.52;0.56;0.6;0.64;0.68;0.72;0.76;0.8;0.84;0.88;0.92;0.96;1"
           fill="freeze"></animate>
  <animate href="#628325_stroke_path" attributeName="stroke-dashoffset"
           values="0;0;0;0;0;0;0;0;0;0;-85.21160558717006;-915.3146633488516;-2911.39652422831;-5335.6667031832985;-6729.586551246755;-7100.967132264172;-7100.967132264172;-7100.967132264172;-7100.967132264172;-7100.967132264172;-7100.967132264172;-7100.967132264172;-7100.967132264172;-7100.967132264172;-7100.967132264172;-7100.967132264172"
           dur="5s" repeatCount="indefinite"
           keyTimes="0;0.04;0.08;0.12;0.16;0.2;0.24;0.28;0.32;0.36;0.4;0.44;0.48;0.52;0.56;0.6;0.64;0.68;0.72;0.76;0.8;0.84;0.88;0.92;0.96;1"
           fill="freeze"></animate>
</svg>
