<svg width="426" height="512" fill="none" xmlns="http://www.w3.org/2000/svg"><g clip-path="url(#a)" fill="#FF4A4A"><path d="M426.667 223.68v181.653C426.667 464.149 378.816 512 320 512H106.667C47.851 512 0 464.149 0 405.333V106.667C0 47.851 47.85 0 106.667 0h96.32c39.893 0 77.376 15.53 105.6 43.733l74.346 74.347c28.203 28.203 43.734 65.707 43.734 105.6zM278.4 73.899A107.345 107.345 0 0 0 256 56.725v92.608c0 11.755 9.579 21.334 21.333 21.334h92.608a106.724 106.724 0 0 0-17.173-22.4L278.421 73.92l-.021-.021zM384 223.68c0-3.477-.171-6.933-.491-10.347H277.333c-35.285 0-64-28.714-64-64V43.157c-3.413-.32-6.869-.49-10.346-.49h-96.32c-35.286 0-64 28.714-64 64v298.666c0 35.286 28.714 64 64 64H320c35.285 0 64-28.714 64-64V223.68z"/><path d="m242.205 322.503 23.643-23.65h-.028c8.203-8.191 8.203-21.507 0-29.699-8.203-8.205-21.488-8.205-29.691 0l-23.643 23.65-23.643-23.65c-8.203-8.205-21.488-8.205-29.691 0-8.203 8.192-8.203 21.508 0 29.699l23.643 23.65-23.643 23.651c-8.203 8.191-8.203 21.507 0 29.699 4.102 4.103 9.477 6.147 14.853 6.147 5.375 0 10.75-2.044 14.852-6.147l23.643-23.65 23.643 23.65c4.102 4.103 9.477 6.147 14.852 6.147 5.376 0 10.751-2.044 14.853-6.147 8.203-8.192 8.203-21.508 0-29.699l-23.643-23.651z"/></g><defs><clipPath id="a"><path fill="#fff" d="M0 0h426v512H0z"/></clipPath></defs></svg>