<svg width="426" height="512" fill="none" xmlns="http://www.w3.org/2000/svg"><g clip-path="url(#a)"><path d="M298.333 320c0 11.776-9.557 21.333-21.333 21.333H149c-11.776 0-21.333-9.557-21.333-21.333 0-11.776 9.557-21.333 21.333-21.333h128c11.776 0 21.333 9.557 21.333 21.333zm128-96.32v181.653c0 58.816-47.85 106.667-106.666 106.667H106.333C47.517 512-.333 464.149-.333 405.333V106.667C-.333 47.851 47.517 0 106.333 0h96.32c39.894 0 77.376 15.53 105.6 43.733L382.6 118.08c28.203 28.203 43.733 65.707 43.733 105.6zM278.067 73.899a107.345 107.345 0 0 0-22.4-17.174v92.608c0 11.755 9.578 21.334 21.333 21.334h92.608a106.758 106.758 0 0 0-17.173-22.4L278.088 73.92l-.021-.021zm105.6 149.781c0-3.477-.171-6.933-.491-10.347H277c-35.285 0-64-28.714-64-64V43.157a110.89 110.89 0 0 0-10.347-.49h-96.32c-35.285 0-64 28.714-64 64v298.666c0 35.286 28.715 64 64 64h213.334c35.285 0 64-28.714 64-64V223.68z" fill="#FFB84D"/></g><defs><clipPath id="a"><path fill="#fff" d="M0 0h426v512H0z"/></clipPath></defs></svg>