<svg width="426" height="512" viewBox="0 0 426 512" fill="none" xmlns="http://www.w3.org/2000/svg">
<g clip-path="url(#clip0_608_278)">
<path d="M426.667 223.68V405.333C426.667 464.149 378.816 512 320 512H106.667C47.8507 512 0 464.149 0 405.333V106.667C0 47.8507 47.8507 0 106.667 0H202.987C242.88 0 280.363 15.5307 308.587 43.7333L382.933 118.08C411.136 146.283 426.667 183.787 426.667 223.68ZM278.4 73.8987C271.616 67.1147 264.085 61.376 256 56.7253V149.333C256 161.088 265.579 170.667 277.333 170.667H369.941C365.291 162.581 359.552 155.029 352.768 148.267L278.421 73.92L278.4 73.8987ZM384 223.68C384 220.203 383.829 216.747 383.509 213.333H277.333C242.048 213.333 213.333 184.619 213.333 149.333V43.1573C209.92 42.8373 206.464 42.6667 202.987 42.6667H106.667C71.3813 42.6667 42.6667 71.3813 42.6667 106.667V405.333C42.6667 440.619 71.3813 469.333 106.667 469.333H320C355.285 469.333 384 440.619 384 405.333V223.68Z" fill="#FF4A4A"/>
<path d="M242.205 322.503L265.848 298.853H265.82C274.023 290.662 274.023 277.346 265.82 269.154C257.617 260.949 244.332 260.949 236.129 269.154L212.486 292.804L188.843 269.154C180.64 260.949 167.355 260.949 159.152 269.154C150.949 277.346 150.949 290.662 159.152 298.853L182.795 322.503L159.152 346.154C150.949 354.345 150.949 367.661 159.152 375.853C163.254 379.956 168.629 382 174.005 382C179.38 382 184.755 379.956 188.857 375.853L212.5 352.203L236.143 375.853C240.245 379.956 245.62 382 250.995 382C256.371 382 261.746 379.956 265.848 375.853C274.051 367.661 274.051 354.345 265.848 346.154L242.205 322.503Z" fill="#FF4A4A"/>
</g>
<defs>
<clipPath id="clip0_608_278">
<rect width="426" height="512" fill="white"/>
</clipPath>
</defs>
</svg>
