<svg xmlns="http://www.w3.org/2000/svg" viewBox="0 0 24 24" width="512" height="512"><path d="m17.293 17.293-5.465-5.465a4 4 0 0 0-5.656 0l-.879.879a1 1 0 0 0-.293.707V17a2 2 0 0 0 2 2h9.586a1 1 0 0 0 .707-1.707z"/><circle cx="16" cy="8" r="2.5"/><path d="M22.5 15.5A1.5 1.5 0 0 0 21 17v1.5a2.5 2.5 0 0 1-2.5 2.5H17a1.5 1.5 0 0 0 0 3h1.5a5.506 5.506 0 0 0 5.5-5.5V17a1.5 1.5 0 0 0-1.5-1.5zM1.5 8.5A1.5 1.5 0 0 0 3 7V5.5A2.5 2.5 0 0 1 5.5 3H7a1.5 1.5 0 0 0 0-3H5.5A5.506 5.506 0 0 0 0 5.5V7a1.5 1.5 0 0 0 1.5 1.5zM7 21H5.5A2.5 2.5 0 0 1 3 18.5V17a1.5 1.5 0 0 0-3 0v1.5A5.506 5.506 0 0 0 5.5 24H7a1.5 1.5 0 0 0 0-3zM18.5 0H17a1.5 1.5 0 0 0 0 3h1.5A2.5 2.5 0 0 1 21 5.5V7a1.5 1.5 0 0 0 3 0V5.5A5.506 5.506 0 0 0 18.5 0z"/></svg>